<mxfile host="app.diagrams.net" modified="2023-10-25T19:19:58.127Z" agent="Mozilla/5.0 (Windows NT 10.0; Win64; x64) AppleWebKit/537.36 (KHTML, like Gecko) Chrome/118.0.0.0 Safari/537.36 Edg/118.0.2088.57" etag="xIKMqVTQUi6BEZ4xjueg" version="22.0.8" type="github">
  <diagram id="C5RBs43oDa-KdzZeNtuy" name="Page-1">
    <mxGraphModel dx="1573" dy="447" grid="1" gridSize="10" guides="1" tooltips="1" connect="1" arrows="1" fold="1" page="1" pageScale="1" pageWidth="827" pageHeight="1169" math="0" shadow="0">
      <root>
        <mxCell id="WIyWlLk6GJQsqaUBKTNV-0" />
        <mxCell id="WIyWlLk6GJQsqaUBKTNV-1" parent="WIyWlLk6GJQsqaUBKTNV-0" />
        <mxCell id="3sn1_tiec3JRXjUGXaAe-30" style="edgeStyle=orthogonalEdgeStyle;rounded=0;orthogonalLoop=1;jettySize=auto;html=1;entryX=1;entryY=0.25;entryDx=0;entryDy=0;" edge="1" parent="WIyWlLk6GJQsqaUBKTNV-1" source="WIyWlLk6GJQsqaUBKTNV-3" target="3sn1_tiec3JRXjUGXaAe-4">
          <mxGeometry relative="1" as="geometry" />
        </mxCell>
        <mxCell id="WIyWlLk6GJQsqaUBKTNV-3" value="&lt;div&gt;Welcome to the Number Guessing Game!&lt;/div&gt;&lt;div&gt;Choose a difficulty. Type &#39;easy&#39; or &#39;hard&#39;:&amp;nbsp;&lt;/div&gt;" style="rounded=1;whiteSpace=wrap;html=1;fontSize=12;glass=0;strokeWidth=1;shadow=0;" parent="WIyWlLk6GJQsqaUBKTNV-1" vertex="1">
          <mxGeometry x="55" y="80" width="330" height="40" as="geometry" />
        </mxCell>
        <mxCell id="3sn1_tiec3JRXjUGXaAe-23" style="edgeStyle=orthogonalEdgeStyle;rounded=0;orthogonalLoop=1;jettySize=auto;html=1;entryX=0.25;entryY=0;entryDx=0;entryDy=0;" edge="1" parent="WIyWlLk6GJQsqaUBKTNV-1" source="WIyWlLk6GJQsqaUBKTNV-10" target="3sn1_tiec3JRXjUGXaAe-13">
          <mxGeometry relative="1" as="geometry" />
        </mxCell>
        <mxCell id="WIyWlLk6GJQsqaUBKTNV-10" value="&lt;div&gt;You have 10 attempts remaining to guess the number.&lt;/div&gt;&lt;div&gt;Make a guess:&amp;nbsp;&lt;/div&gt;" style="rhombus;whiteSpace=wrap;html=1;shadow=0;fontFamily=Helvetica;fontSize=12;align=center;strokeWidth=1;spacing=6;spacingTop=-4;" parent="WIyWlLk6GJQsqaUBKTNV-1" vertex="1">
          <mxGeometry x="30" y="280" width="160" height="140" as="geometry" />
        </mxCell>
        <mxCell id="3sn1_tiec3JRXjUGXaAe-4" value="hard" style="rounded=1;whiteSpace=wrap;html=1;fontSize=12;glass=0;strokeWidth=1;shadow=0;" vertex="1" parent="WIyWlLk6GJQsqaUBKTNV-1">
          <mxGeometry x="350" y="190" width="120" height="40" as="geometry" />
        </mxCell>
        <mxCell id="3sn1_tiec3JRXjUGXaAe-7" value="" style="endArrow=classic;html=1;rounded=0;" edge="1" parent="WIyWlLk6GJQsqaUBKTNV-1" source="WIyWlLk6GJQsqaUBKTNV-7">
          <mxGeometry width="50" height="50" relative="1" as="geometry">
            <mxPoint x="120" y="130" as="sourcePoint" />
            <mxPoint x="120" y="200" as="targetPoint" />
          </mxGeometry>
        </mxCell>
        <mxCell id="3sn1_tiec3JRXjUGXaAe-16" value="" style="edgeStyle=orthogonalEdgeStyle;rounded=0;orthogonalLoop=1;jettySize=auto;html=1;" edge="1" parent="WIyWlLk6GJQsqaUBKTNV-1" source="WIyWlLk6GJQsqaUBKTNV-7" target="WIyWlLk6GJQsqaUBKTNV-10">
          <mxGeometry relative="1" as="geometry" />
        </mxCell>
        <mxCell id="WIyWlLk6GJQsqaUBKTNV-7" value="easy" style="rounded=1;whiteSpace=wrap;html=1;fontSize=12;glass=0;strokeWidth=1;shadow=0;" parent="WIyWlLk6GJQsqaUBKTNV-1" vertex="1">
          <mxGeometry x="50" y="190" width="120" height="40" as="geometry" />
        </mxCell>
        <mxCell id="3sn1_tiec3JRXjUGXaAe-20" style="edgeStyle=orthogonalEdgeStyle;rounded=0;orthogonalLoop=1;jettySize=auto;html=1;entryX=0.75;entryY=0;entryDx=0;entryDy=0;" edge="1" parent="WIyWlLk6GJQsqaUBKTNV-1" source="3sn1_tiec3JRXjUGXaAe-12" target="3sn1_tiec3JRXjUGXaAe-19">
          <mxGeometry relative="1" as="geometry" />
        </mxCell>
        <mxCell id="3sn1_tiec3JRXjUGXaAe-21" style="edgeStyle=orthogonalEdgeStyle;rounded=0;orthogonalLoop=1;jettySize=auto;html=1;entryX=0.5;entryY=0;entryDx=0;entryDy=0;" edge="1" parent="WIyWlLk6GJQsqaUBKTNV-1" source="3sn1_tiec3JRXjUGXaAe-12" target="3sn1_tiec3JRXjUGXaAe-18">
          <mxGeometry relative="1" as="geometry" />
        </mxCell>
        <mxCell id="3sn1_tiec3JRXjUGXaAe-27" style="edgeStyle=orthogonalEdgeStyle;rounded=0;orthogonalLoop=1;jettySize=auto;html=1;entryX=0.678;entryY=0;entryDx=0;entryDy=0;entryPerimeter=0;exitX=0.75;exitY=1;exitDx=0;exitDy=0;" edge="1" parent="WIyWlLk6GJQsqaUBKTNV-1" source="3sn1_tiec3JRXjUGXaAe-12" target="3sn1_tiec3JRXjUGXaAe-26">
          <mxGeometry relative="1" as="geometry" />
        </mxCell>
        <mxCell id="3sn1_tiec3JRXjUGXaAe-12" value="guess time&amp;lt;=10" style="rounded=0;whiteSpace=wrap;html=1;" vertex="1" parent="WIyWlLk6GJQsqaUBKTNV-1">
          <mxGeometry x="-40" y="450" width="100" height="40" as="geometry" />
        </mxCell>
        <mxCell id="3sn1_tiec3JRXjUGXaAe-25" style="edgeStyle=orthogonalEdgeStyle;rounded=0;orthogonalLoop=1;jettySize=auto;html=1;" edge="1" parent="WIyWlLk6GJQsqaUBKTNV-1" source="3sn1_tiec3JRXjUGXaAe-13" target="3sn1_tiec3JRXjUGXaAe-24">
          <mxGeometry relative="1" as="geometry" />
        </mxCell>
        <mxCell id="3sn1_tiec3JRXjUGXaAe-13" value="guess time&amp;gt;10" style="rounded=0;whiteSpace=wrap;html=1;" vertex="1" parent="WIyWlLk6GJQsqaUBKTNV-1">
          <mxGeometry x="180" y="440" width="90" height="50" as="geometry" />
        </mxCell>
        <mxCell id="3sn1_tiec3JRXjUGXaAe-18" value="too high" style="rounded=1;whiteSpace=wrap;html=1;" vertex="1" parent="WIyWlLk6GJQsqaUBKTNV-1">
          <mxGeometry x="-80" y="560" width="90" height="50" as="geometry" />
        </mxCell>
        <mxCell id="3sn1_tiec3JRXjUGXaAe-19" value="too low" style="rounded=1;whiteSpace=wrap;html=1;" vertex="1" parent="WIyWlLk6GJQsqaUBKTNV-1">
          <mxGeometry x="-190" y="560" width="90" height="50" as="geometry" />
        </mxCell>
        <mxCell id="3sn1_tiec3JRXjUGXaAe-22" style="edgeStyle=orthogonalEdgeStyle;rounded=0;orthogonalLoop=1;jettySize=auto;html=1;entryX=0.436;entryY=-0.071;entryDx=0;entryDy=0;entryPerimeter=0;" edge="1" parent="WIyWlLk6GJQsqaUBKTNV-1" source="WIyWlLk6GJQsqaUBKTNV-10" target="3sn1_tiec3JRXjUGXaAe-12">
          <mxGeometry relative="1" as="geometry" />
        </mxCell>
        <mxCell id="3sn1_tiec3JRXjUGXaAe-24" value="You&#39;ve run out of guesses, you lose." style="rounded=1;whiteSpace=wrap;html=1;" vertex="1" parent="WIyWlLk6GJQsqaUBKTNV-1">
          <mxGeometry x="165" y="550" width="120" height="60" as="geometry" />
        </mxCell>
        <mxCell id="3sn1_tiec3JRXjUGXaAe-26" value="got it" style="rounded=1;whiteSpace=wrap;html=1;" vertex="1" parent="WIyWlLk6GJQsqaUBKTNV-1">
          <mxGeometry x="20" y="560" width="90" height="50" as="geometry" />
        </mxCell>
        <mxCell id="3sn1_tiec3JRXjUGXaAe-38" style="edgeStyle=orthogonalEdgeStyle;rounded=0;orthogonalLoop=1;jettySize=auto;html=1;entryX=0.5;entryY=0;entryDx=0;entryDy=0;" edge="1" parent="WIyWlLk6GJQsqaUBKTNV-1" source="3sn1_tiec3JRXjUGXaAe-28" target="3sn1_tiec3JRXjUGXaAe-32">
          <mxGeometry relative="1" as="geometry" />
        </mxCell>
        <mxCell id="3sn1_tiec3JRXjUGXaAe-39" style="edgeStyle=orthogonalEdgeStyle;rounded=0;orthogonalLoop=1;jettySize=auto;html=1;entryX=0.5;entryY=0;entryDx=0;entryDy=0;" edge="1" parent="WIyWlLk6GJQsqaUBKTNV-1" source="3sn1_tiec3JRXjUGXaAe-28" target="3sn1_tiec3JRXjUGXaAe-33">
          <mxGeometry relative="1" as="geometry" />
        </mxCell>
        <mxCell id="3sn1_tiec3JRXjUGXaAe-28" value="&lt;div&gt;You have 5 attempts remaining to guess the number.&lt;/div&gt;&lt;div&gt;Make a guess:&amp;nbsp;&lt;/div&gt;" style="rhombus;whiteSpace=wrap;html=1;shadow=0;fontFamily=Helvetica;fontSize=12;align=center;strokeWidth=1;spacing=6;spacingTop=-4;" vertex="1" parent="WIyWlLk6GJQsqaUBKTNV-1">
          <mxGeometry x="340" y="280" width="160" height="140" as="geometry" />
        </mxCell>
        <mxCell id="3sn1_tiec3JRXjUGXaAe-29" style="edgeStyle=orthogonalEdgeStyle;rounded=0;orthogonalLoop=1;jettySize=auto;html=1;entryX=0.423;entryY=0.09;entryDx=0;entryDy=0;entryPerimeter=0;" edge="1" parent="WIyWlLk6GJQsqaUBKTNV-1" source="3sn1_tiec3JRXjUGXaAe-4" target="3sn1_tiec3JRXjUGXaAe-28">
          <mxGeometry relative="1" as="geometry" />
        </mxCell>
        <mxCell id="3sn1_tiec3JRXjUGXaAe-31" style="edgeStyle=orthogonalEdgeStyle;rounded=0;orthogonalLoop=1;jettySize=auto;html=1;entryX=0.386;entryY=-0.115;entryDx=0;entryDy=0;entryPerimeter=0;" edge="1" parent="WIyWlLk6GJQsqaUBKTNV-1" source="WIyWlLk6GJQsqaUBKTNV-3" target="WIyWlLk6GJQsqaUBKTNV-7">
          <mxGeometry relative="1" as="geometry" />
        </mxCell>
        <mxCell id="3sn1_tiec3JRXjUGXaAe-40" style="edgeStyle=orthogonalEdgeStyle;rounded=0;orthogonalLoop=1;jettySize=auto;html=1;entryX=0.25;entryY=0;entryDx=0;entryDy=0;" edge="1" parent="WIyWlLk6GJQsqaUBKTNV-1" source="3sn1_tiec3JRXjUGXaAe-32" target="3sn1_tiec3JRXjUGXaAe-35">
          <mxGeometry relative="1" as="geometry" />
        </mxCell>
        <mxCell id="3sn1_tiec3JRXjUGXaAe-42" style="edgeStyle=orthogonalEdgeStyle;rounded=0;orthogonalLoop=1;jettySize=auto;html=1;" edge="1" parent="WIyWlLk6GJQsqaUBKTNV-1" source="3sn1_tiec3JRXjUGXaAe-32" target="3sn1_tiec3JRXjUGXaAe-37">
          <mxGeometry relative="1" as="geometry" />
        </mxCell>
        <mxCell id="3sn1_tiec3JRXjUGXaAe-32" value="guess time&amp;lt;=5" style="rounded=0;whiteSpace=wrap;html=1;" vertex="1" parent="WIyWlLk6GJQsqaUBKTNV-1">
          <mxGeometry x="340" y="455" width="100" height="40" as="geometry" />
        </mxCell>
        <mxCell id="3sn1_tiec3JRXjUGXaAe-33" value="guess time&amp;gt;5" style="rounded=0;whiteSpace=wrap;html=1;" vertex="1" parent="WIyWlLk6GJQsqaUBKTNV-1">
          <mxGeometry x="620" y="455" width="90" height="50" as="geometry" />
        </mxCell>
        <mxCell id="3sn1_tiec3JRXjUGXaAe-34" value="too high" style="rounded=1;whiteSpace=wrap;html=1;" vertex="1" parent="WIyWlLk6GJQsqaUBKTNV-1">
          <mxGeometry x="400" y="560" width="90" height="50" as="geometry" />
        </mxCell>
        <mxCell id="3sn1_tiec3JRXjUGXaAe-35" value="too low" style="rounded=1;whiteSpace=wrap;html=1;" vertex="1" parent="WIyWlLk6GJQsqaUBKTNV-1">
          <mxGeometry x="295" y="560" width="90" height="50" as="geometry" />
        </mxCell>
        <mxCell id="3sn1_tiec3JRXjUGXaAe-36" value="You&#39;ve run out of guesses, you lose." style="rounded=1;whiteSpace=wrap;html=1;" vertex="1" parent="WIyWlLk6GJQsqaUBKTNV-1">
          <mxGeometry x="620" y="550" width="120" height="60" as="geometry" />
        </mxCell>
        <mxCell id="3sn1_tiec3JRXjUGXaAe-37" value="got it" style="rounded=1;whiteSpace=wrap;html=1;" vertex="1" parent="WIyWlLk6GJQsqaUBKTNV-1">
          <mxGeometry x="500" y="560" width="90" height="50" as="geometry" />
        </mxCell>
        <mxCell id="3sn1_tiec3JRXjUGXaAe-41" style="edgeStyle=orthogonalEdgeStyle;rounded=0;orthogonalLoop=1;jettySize=auto;html=1;entryX=0.144;entryY=-0.027;entryDx=0;entryDy=0;entryPerimeter=0;" edge="1" parent="WIyWlLk6GJQsqaUBKTNV-1" source="3sn1_tiec3JRXjUGXaAe-32" target="3sn1_tiec3JRXjUGXaAe-34">
          <mxGeometry relative="1" as="geometry" />
        </mxCell>
        <mxCell id="3sn1_tiec3JRXjUGXaAe-43" style="edgeStyle=orthogonalEdgeStyle;rounded=0;orthogonalLoop=1;jettySize=auto;html=1;entryX=0.358;entryY=0.044;entryDx=0;entryDy=0;entryPerimeter=0;" edge="1" parent="WIyWlLk6GJQsqaUBKTNV-1" source="3sn1_tiec3JRXjUGXaAe-33" target="3sn1_tiec3JRXjUGXaAe-36">
          <mxGeometry relative="1" as="geometry" />
        </mxCell>
      </root>
    </mxGraphModel>
  </diagram>
</mxfile>
